<?xml version="1.0" encoding="UTF-8" standalone="no"?>
<!DOCTYPE svg PUBLIC "-//W3C//DTD SVG 1.1//EN"
 "http://www.w3.org/Graphics/SVG/1.1/DTD/svg11.dtd">
<!-- Generated by graphviz version 2.43.0 (0)
 -->
<!-- Title: include/discrete_modulus/cunningham.hpp Pages: 1 -->
<svg width="930pt" height="225pt"
 viewBox="0.00 0.00 930.00 225.00" xmlns="http://www.w3.org/2000/svg" xmlns:xlink="http://www.w3.org/1999/xlink">
<g id="graph0" class="graph" transform="scale(1 1) rotate(0) translate(4 221)">
<title>include/discrete_modulus/cunningham.hpp</title>
<!-- Node1 -->
<g id="Node000001" class="node">
<title>Node1</title>
<g id="a_Node000001"><a xlink:title="Exact spanning tree modulus via Cunningham&#39;s algorithm.">
<polygon fill="#999999" stroke="#666666" points="484.5,-217 343.5,-217 343.5,-187 484.5,-187 484.5,-217"/>
<text text-anchor="start" x="351.5" y="-205" font-family="Helvetica,sans-Serif" font-size="10.00">include/discrete_modulus</text>
<text text-anchor="middle" x="414" y="-194" font-family="Helvetica,sans-Serif" font-size="10.00">/cunningham.hpp</text>
</a>
</g>
</g>
<!-- Node2 -->
<g id="Node000002" class="node">
<title>Node2</title>
<g id="a_Node000002"><a xlink:title=" ">
<polygon fill="#e0e0e0" stroke="#999999" points="88,-145.5 24,-145.5 24,-126.5 88,-126.5 88,-145.5"/>
<text text-anchor="middle" x="56" y="-133.5" font-family="Helvetica,sans-Serif" font-size="10.00">algorithm</text>
</a>
</g>
</g>
<!-- Node1&#45;&gt;Node2 -->
<g id="edge1_Node000001_Node000002" class="edge">
<title>Node1&#45;&gt;Node2</title>
<g id="a_edge1_Node000001_Node000002"><a xlink:title=" ">
<path fill="none" stroke="#63b8ff" d="M343.42,-193.41C278.72,-185.62 180.56,-171.69 97,-151 94.19,-150.31 91.31,-149.5 88.42,-148.64"/>
<polygon fill="#63b8ff" stroke="#63b8ff" points="89.37,-145.27 78.78,-145.56 87.24,-151.94 89.37,-145.27"/>
</a>
</g>
</g>
<!-- Node3 -->
<g id="Node000003" class="node">
<title>Node3</title>
<g id="a_Node000003"><a xlink:title=" ">
<polygon fill="#e0e0e0" stroke="#999999" points="158,-145.5 106,-145.5 106,-126.5 158,-126.5 158,-145.5"/>
<text text-anchor="middle" x="132" y="-133.5" font-family="Helvetica,sans-Serif" font-size="10.00">cassert</text>
</a>
</g>
</g>
<!-- Node1&#45;&gt;Node3 -->
<g id="edge2_Node000001_Node000003" class="edge">
<title>Node1&#45;&gt;Node3</title>
<g id="a_edge2_Node000001_Node000003"><a xlink:title=" ">
<path fill="none" stroke="#63b8ff" d="M343.43,-190.21C293.57,-181.74 225.48,-168.46 167,-151 165.12,-150.44 163.2,-149.82 161.27,-149.16"/>
<polygon fill="#63b8ff" stroke="#63b8ff" points="162.36,-145.83 151.77,-145.63 159.93,-152.39 162.36,-145.83"/>
</a>
</g>
</g>
<!-- Node4 -->
<g id="Node000004" class="node">
<title>Node4</title>
<g id="a_Node000004"><a xlink:title=" ">
<polygon fill="#e0e0e0" stroke="#999999" points="232,-145.5 176,-145.5 176,-126.5 232,-126.5 232,-145.5"/>
<text text-anchor="middle" x="204" y="-133.5" font-family="Helvetica,sans-Serif" font-size="10.00">iomanip</text>
</a>
</g>
</g>
<!-- Node1&#45;&gt;Node4 -->
<g id="edge3_Node000001_Node000004" class="edge">
<title>Node1&#45;&gt;Node4</title>
<g id="a_edge3_Node000001_Node000004"><a xlink:title=" ">
<path fill="none" stroke="#63b8ff" d="M361.43,-186.99C326.96,-177.51 281.04,-164.34 241,-151 239.14,-150.38 237.24,-149.73 235.33,-149.05"/>
<polygon fill="#63b8ff" stroke="#63b8ff" points="236.4,-145.72 225.81,-145.58 234.01,-152.3 236.4,-145.72"/>
</a>
</g>
</g>
<!-- Node5 -->
<g id="Node000005" class="node">
<title>Node5</title>
<g id="a_Node000005"><a xlink:title=" ">
<polygon fill="#e0e0e0" stroke="#999999" points="310,-145.5 250,-145.5 250,-126.5 310,-126.5 310,-145.5"/>
<text text-anchor="middle" x="280" y="-133.5" font-family="Helvetica,sans-Serif" font-size="10.00">iostream</text>
</a>
</g>
</g>
<!-- Node1&#45;&gt;Node5 -->
<g id="edge4_Node000001_Node000005" class="edge">
<title>Node1&#45;&gt;Node5</title>
<g id="a_edge4_Node000001_Node000005"><a xlink:title=" ">
<path fill="none" stroke="#63b8ff" d="M384.59,-186.95C361.51,-175.93 329.62,-160.7 307.14,-149.96"/>
<polygon fill="#63b8ff" stroke="#63b8ff" points="308.37,-146.67 297.83,-145.52 305.35,-152.99 308.37,-146.67"/>
</a>
</g>
</g>
<!-- Node6 -->
<g id="Node000006" class="node">
<title>Node6</title>
<g id="a_Node000006"><a xlink:title=" ">
<polygon fill="#e0e0e0" stroke="#999999" points="38,-24.5 0,-24.5 0,-5.5 38,-5.5 38,-24.5"/>
<text text-anchor="middle" x="19" y="-12.5" font-family="Helvetica,sans-Serif" font-size="10.00">map</text>
</a>
</g>
</g>
<!-- Node1&#45;&gt;Node6 -->
<g id="edge5_Node000001_Node000006" class="edge">
<title>Node1&#45;&gt;Node6</title>
<g id="a_edge5_Node000001_Node000006"><a xlink:title=" ">
<path fill="none" stroke="#63b8ff" d="M400.78,-186.98C383.48,-169.37 351.53,-139.25 319,-121 207.83,-58.62 164.74,-78.85 47,-30 46.14,-29.64 45.28,-29.27 44.4,-28.89"/>
<polygon fill="#63b8ff" stroke="#63b8ff" points="45.65,-25.61 35.11,-24.54 42.68,-31.95 45.65,-25.61"/>
</a>
</g>
</g>
<!-- Node7 -->
<g id="Node000007" class="node">
<title>Node7</title>
<g id="a_Node000007"><a xlink:title=" ">
<polygon fill="#e0e0e0" stroke="#999999" points="764,-145.5 732,-145.5 732,-126.5 764,-126.5 764,-145.5"/>
<text text-anchor="middle" x="748" y="-133.5" font-family="Helvetica,sans-Serif" font-size="10.00">set</text>
</a>
</g>
</g>
<!-- Node1&#45;&gt;Node7 -->
<g id="edge6_Node000001_Node000007" class="edge">
<title>Node1&#45;&gt;Node7</title>
<g id="a_edge6_Node000001_Node000007"><a xlink:title=" ">
<path fill="none" stroke="#63b8ff" d="M484.68,-194.9C547.11,-188.22 640.07,-175.09 718,-151 719.44,-150.55 720.9,-150.05 722.36,-149.51"/>
<polygon fill="#63b8ff" stroke="#63b8ff" points="723.96,-152.64 731.82,-145.54 721.24,-146.19 723.96,-152.64"/>
</a>
</g>
</g>
<!-- Node8 -->
<g id="Node000008" class="node">
<title>Node8</title>
<g id="a_Node000008"><a xlink:title=" ">
<polygon fill="#e0e0e0" stroke="#999999" points="552.5,-85 507.5,-85 507.5,-66 552.5,-66 552.5,-85"/>
<text text-anchor="middle" x="530" y="-73" font-family="Helvetica,sans-Serif" font-size="10.00">utility</text>
</a>
</g>
</g>
<!-- Node1&#45;&gt;Node8 -->
<g id="edge7_Node000001_Node000008" class="edge">
<title>Node1&#45;&gt;Node8</title>
<g id="a_edge7_Node000001_Node000008"><a xlink:title=" ">
<path fill="none" stroke="#63b8ff" d="M459.5,-186.88C477.93,-179.04 497.9,-167.45 511,-151 523.58,-135.2 527.92,-112.06 529.38,-95.77"/>
<polygon fill="#63b8ff" stroke="#63b8ff" points="532.9,-95.51 530,-85.32 525.91,-95.1 532.9,-95.51"/>
</a>
</g>
</g>
<!-- Node9 -->
<g id="Node000009" class="node">
<title>Node9</title>
<g id="a_Node000009"><a xlink:title=" ">
<polygon fill="#e0e0e0" stroke="#999999" points="663.5,-24.5 616.5,-24.5 616.5,-5.5 663.5,-5.5 663.5,-24.5"/>
<text text-anchor="middle" x="640" y="-12.5" font-family="Helvetica,sans-Serif" font-size="10.00">vector</text>
</a>
</g>
</g>
<!-- Node1&#45;&gt;Node9 -->
<g id="edge8_Node000001_Node000009" class="edge">
<title>Node1&#45;&gt;Node9</title>
<g id="a_edge8_Node000001_Node000009"><a xlink:title=" ">
<path fill="none" stroke="#63b8ff" d="M484.75,-193.68C550.45,-182.59 644.09,-154.75 685,-85 696.15,-65.99 677.56,-44.85 661,-31.05"/>
<polygon fill="#63b8ff" stroke="#63b8ff" points="662.73,-27.95 652.7,-24.55 658.41,-33.47 662.73,-27.95"/>
</a>
</g>
</g>
<!-- Node10 -->
<g id="Node000010" class="node">
<title>Node10</title>
<g id="a_Node000010"><a xlink:title=" ">
<polygon fill="#e0e0e0" stroke="#999999" points="922,-151 782,-151 782,-121 922,-121 922,-151"/>
<text text-anchor="start" x="790" y="-139" font-family="Helvetica,sans-Serif" font-size="10.00">boost/graph/push_relabel</text>
<text text-anchor="middle" x="852" y="-128" font-family="Helvetica,sans-Serif" font-size="10.00">_max_flow.hpp</text>
</a>
</g>
</g>
<!-- Node1&#45;&gt;Node10 -->
<g id="edge9_Node000001_Node000010" class="edge">
<title>Node1&#45;&gt;Node10</title>
<g id="a_edge9_Node000001_Node000010"><a xlink:title=" ">
<path fill="none" stroke="#63b8ff" d="M484.62,-191.95C554.9,-182.76 666.1,-167.75 771.92,-151.14"/>
<polygon fill="#63b8ff" stroke="#63b8ff" points="772.48,-154.59 781.81,-149.58 771.39,-147.68 772.48,-154.59"/>
</a>
</g>
</g>
<!-- Node11 -->
<g id="Node000011" class="node">
<title>Node11</title>
<g id="a_Node000011"><a xlink:title=" ">
<polygon fill="#e0e0e0" stroke="#999999" points="675.5,-85 570.5,-85 570.5,-66 675.5,-66 675.5,-85"/>
<text text-anchor="middle" x="623" y="-73" font-family="Helvetica,sans-Serif" font-size="10.00">boost/rational.hpp</text>
</a>
</g>
</g>
<!-- Node1&#45;&gt;Node11 -->
<g id="edge10_Node000001_Node000011" class="edge">
<title>Node1&#45;&gt;Node11</title>
<g id="a_edge10_Node000001_Node000011"><a xlink:title=" ">
<path fill="none" stroke="#63b8ff" d="M455.65,-186.94C479.18,-178.17 508.66,-165.74 533,-151 561.03,-134.02 589.53,-108.8 606.74,-92.5"/>
<polygon fill="#63b8ff" stroke="#63b8ff" points="609.45,-94.75 614.23,-85.3 604.59,-89.71 609.45,-94.75"/>
</a>
</g>
</g>
<!-- Node12 -->
<g id="Node000012" class="node">
<title>Node12</title>
<g id="a_Node000012"><a xlink:href="graphs_8hpp.html" target="_top" xlink:title="Graph/flow&#45;graph type aliases, subgraph/component helpers, and demo graph generators used by cunningh...">
<polygon fill="white" stroke="#666666" points="375.5,-85 304.5,-85 304.5,-66 375.5,-66 375.5,-85"/>
<text text-anchor="middle" x="340" y="-73" font-family="Helvetica,sans-Serif" font-size="10.00">graphs.hpp</text>
</a>
</g>
</g>
<!-- Node1&#45;&gt;Node12 -->
<g id="edge11_Node000001_Node000012" class="edge">
<title>Node1&#45;&gt;Node12</title>
<g id="a_edge11_Node000001_Node000012"><a xlink:title=" ">
<path fill="none" stroke="#63b8ff" d="M405.51,-186.72C391.84,-163.71 364.98,-118.53 350.26,-93.76"/>
<polygon fill="#63b8ff" stroke="#63b8ff" points="353.21,-91.88 345.09,-85.07 347.19,-95.45 353.21,-91.88"/>
</a>
</g>
</g>
<!-- Node18 -->
<g id="Node000018" class="node">
<title>Node18</title>
<g id="a_Node000018"><a xlink:href="solver__trace_8hpp.html" target="_top" xlink:title="Opt&#45;in per&#45;round trace recording for spanning_tree_modulus, and a versioned JSON writer for the recor...">
<polygon fill="white" stroke="#666666" points="502,-145.5 404,-145.5 404,-126.5 502,-126.5 502,-145.5"/>
<text text-anchor="middle" x="453" y="-133.5" font-family="Helvetica,sans-Serif" font-size="10.00">solver_trace.hpp</text>
</a>
</g>
</g>
<!-- Node1&#45;&gt;Node18 -->
<g id="edge19_Node000001_Node000018" class="edge">
<title>Node1&#45;&gt;Node18</title>
<g id="a_edge19_Node000001_Node000018"><a xlink:title=" ">
<path fill="none" stroke="#63b8ff" d="M422.66,-186.8C428.44,-177.31 436.08,-164.76 442.26,-154.63"/>
<polygon fill="#63b8ff" stroke="#63b8ff" points="445.4,-156.21 447.61,-145.84 439.42,-152.56 445.4,-156.21"/>
</a>
</g>
</g>
<!-- Node12&#45;&gt;Node6 -->
<g id="edge13_Node000012_Node000006" class="edge">
<title>Node12&#45;&gt;Node6</title>
<g id="a_edge13_Node000012_Node000006"><a xlink:title=" ">
<path fill="none" stroke="#63b8ff" d="M304.24,-68.32C299.45,-67.53 294.61,-66.73 290,-66 182.18,-48.85 151.13,-62.82 47,-30 45.78,-29.61 44.54,-29.18 43.3,-28.71"/>
<polygon fill="#63b8ff" stroke="#63b8ff" points="44.6,-25.46 34.04,-24.61 41.76,-31.86 44.6,-25.46"/>
</a>
</g>
</g>
<!-- Node12&#45;&gt;Node9 -->
<g id="edge15_Node000012_Node000009" class="edge">
<title>Node12&#45;&gt;Node9</title>
<g id="a_edge15_Node000012_Node000009"><a xlink:title=" ">
<path fill="none" stroke="#63b8ff" d="M375.52,-67.54C378.39,-67.01 381.24,-66.49 384,-66 482.85,-48.48 510.53,-57.81 607,-30 608.88,-29.46 610.8,-28.84 612.72,-28.16"/>
<polygon fill="#63b8ff" stroke="#63b8ff" points="614.08,-31.39 622.13,-24.51 611.54,-24.87 614.08,-31.39"/>
</a>
</g>
</g>
<!-- Node13 -->
<g id="Node000013" class="node">
<title>Node13</title>
<g id="a_Node000013"><a xlink:title=" ">
<polygon fill="#e0e0e0" stroke="#999999" points="525.5,-24.5 478.5,-24.5 478.5,-5.5 525.5,-5.5 525.5,-24.5"/>
<text text-anchor="middle" x="502" y="-12.5" font-family="Helvetica,sans-Serif" font-size="10.00">cmath</text>
</a>
</g>
</g>
<!-- Node12&#45;&gt;Node13 -->
<g id="edge12_Node000012_Node000013" class="edge">
<title>Node12&#45;&gt;Node13</title>
<g id="a_edge12_Node000012_Node000013"><a xlink:title=" ">
<path fill="none" stroke="#63b8ff" d="M366.38,-65.99C392.59,-57.4 433.84,-43.51 469,-30 470.38,-29.47 471.79,-28.92 473.21,-28.35"/>
<polygon fill="#63b8ff" stroke="#63b8ff" points="474.63,-31.55 482.55,-24.52 471.97,-25.08 474.63,-31.55"/>
</a>
</g>
</g>
<!-- Node14 -->
<g id="Node000014" class="node">
<title>Node14</title>
<g id="a_Node000014"><a xlink:title=" ">
<polygon fill="#e0e0e0" stroke="#999999" points="598,-24.5 544,-24.5 544,-5.5 598,-5.5 598,-24.5"/>
<text text-anchor="middle" x="571" y="-12.5" font-family="Helvetica,sans-Serif" font-size="10.00">random</text>
</a>
</g>
</g>
<!-- Node12&#45;&gt;Node14 -->
<g id="edge14_Node000012_Node000014" class="edge">
<title>Node12&#45;&gt;Node14</title>
<g id="a_edge14_Node000012_Node000014"><a xlink:title=" ">
<path fill="none" stroke="#63b8ff" d="M375.85,-66.98C423.65,-56.83 505.62,-39.01 535,-30 536.92,-29.41 538.89,-28.77 540.86,-28.09"/>
<polygon fill="#63b8ff" stroke="#63b8ff" points="542.43,-31.24 550.62,-24.52 540.03,-24.67 542.43,-31.24"/>
</a>
</g>
</g>
<!-- Node15 -->
<g id="Node000015" class="node">
<title>Node15</title>
<g id="a_Node000015"><a xlink:title=" ">
<polygon fill="#e0e0e0" stroke="#999999" points="183.5,-30 56.5,-30 56.5,0 183.5,0 183.5,-30"/>
<text text-anchor="start" x="64.5" y="-18" font-family="Helvetica,sans-Serif" font-size="10.00">boost/graph/adjacency</text>
<text text-anchor="middle" x="120" y="-7" font-family="Helvetica,sans-Serif" font-size="10.00">_list.hpp</text>
</a>
</g>
</g>
<!-- Node12&#45;&gt;Node15 -->
<g id="edge16_Node000012_Node000015" class="edge">
<title>Node12&#45;&gt;Node15</title>
<g id="a_edge16_Node000012_Node000015"><a xlink:title=" ">
<path fill="none" stroke="#63b8ff" d="M308.01,-65.99C275.31,-57.3 223.67,-43.57 182.77,-32.69"/>
<polygon fill="#63b8ff" stroke="#63b8ff" points="183.45,-29.25 172.89,-30.06 181.66,-36.02 183.45,-29.25"/>
</a>
</g>
</g>
<!-- Node16 -->
<g id="Node000016" class="node">
<title>Node16</title>
<g id="a_Node000016"><a xlink:title=" ">
<polygon fill="#e0e0e0" stroke="#999999" points="330,-30 202,-30 202,0 330,0 330,-30"/>
<text text-anchor="start" x="210" y="-18" font-family="Helvetica,sans-Serif" font-size="10.00">boost/graph/connected</text>
<text text-anchor="middle" x="266" y="-7" font-family="Helvetica,sans-Serif" font-size="10.00">_components.hpp</text>
</a>
</g>
</g>
<!-- Node12&#45;&gt;Node16 -->
<g id="edge17_Node000012_Node000016" class="edge">
<title>Node12&#45;&gt;Node16</title>
<g id="a_edge17_Node000012_Node000016"><a xlink:title=" ">
<path fill="none" stroke="#63b8ff" d="M329.08,-65.87C319.32,-58.15 304.63,-46.54 291.88,-36.46"/>
<polygon fill="#63b8ff" stroke="#63b8ff" points="293.87,-33.57 283.85,-30.11 289.53,-39.06 293.87,-33.57"/>
</a>
</g>
</g>
<!-- Node17 -->
<g id="Node000017" class="node">
<title>Node17</title>
<g id="a_Node000017"><a xlink:title=" ">
<polygon fill="#e0e0e0" stroke="#999999" points="460,-30 348,-30 348,0 460,0 460,-30"/>
<text text-anchor="start" x="356" y="-18" font-family="Helvetica,sans-Serif" font-size="10.00">boost/graph/filtered</text>
<text text-anchor="middle" x="404" y="-7" font-family="Helvetica,sans-Serif" font-size="10.00">_graph.hpp</text>
</a>
</g>
</g>
<!-- Node12&#45;&gt;Node17 -->
<g id="edge18_Node000012_Node000017" class="edge">
<title>Node12&#45;&gt;Node17</title>
<g id="a_edge18_Node000012_Node000017"><a xlink:title=" ">
<path fill="none" stroke="#63b8ff" d="M349.44,-65.87C357.73,-58.3 370.11,-46.98 380.99,-37.04"/>
<polygon fill="#63b8ff" stroke="#63b8ff" points="383.54,-39.44 388.56,-30.11 378.82,-34.28 383.54,-39.44"/>
</a>
</g>
</g>
<!-- Node18&#45;&gt;Node8 -->
<g id="edge21_Node000018_Node000008" class="edge">
<title>Node18&#45;&gt;Node8</title>
<g id="a_edge21_Node000018_Node000008"><a xlink:title=" ">
<path fill="none" stroke="#63b8ff" d="M464.36,-126.37C476.42,-117.21 495.7,-102.56 510.25,-91.51"/>
<polygon fill="#63b8ff" stroke="#63b8ff" points="512.75,-94 518.59,-85.17 508.51,-88.43 512.75,-94"/>
</a>
</g>
</g>
<!-- Node18&#45;&gt;Node9 -->
<g id="edge22_Node000018_Node000009" class="edge">
<title>Node18&#45;&gt;Node9</title>
<g id="a_edge22_Node000018_Node000009"><a xlink:title=" ">
<path fill="none" stroke="#63b8ff" d="M456.33,-126.45C462.41,-111.92 476.69,-82.4 498,-66 538.43,-34.88 559.25,-47.98 607,-30 608.38,-29.48 609.79,-28.93 611.21,-28.37"/>
<polygon fill="#63b8ff" stroke="#63b8ff" points="612.63,-31.58 620.56,-24.56 609.98,-25.1 612.63,-31.58"/>
</a>
</g>
</g>
<!-- Node18&#45;&gt;Node11 -->
<g id="edge23_Node000018_Node000011" class="edge">
<title>Node18&#45;&gt;Node11</title>
<g id="a_edge23_Node000018_Node000011"><a xlink:title=" ">
<path fill="none" stroke="#63b8ff" d="M477.72,-126.49C506.93,-116.44 555.7,-99.66 588.59,-88.34"/>
<polygon fill="#63b8ff" stroke="#63b8ff" points="589.93,-91.58 598.25,-85.02 587.66,-84.96 589.93,-91.58"/>
</a>
</g>
</g>
<!-- Node18&#45;&gt;Node12 -->
<g id="edge24_Node000018_Node000012" class="edge">
<title>Node18&#45;&gt;Node12</title>
<g id="a_edge24_Node000018_Node000012"><a xlink:title=" ">
<path fill="none" stroke="#63b8ff" d="M436.33,-126.37C417.72,-116.73 387.38,-101.03 365.72,-89.81"/>
<polygon fill="#63b8ff" stroke="#63b8ff" points="367.23,-86.66 356.74,-85.17 364.01,-92.87 367.23,-86.66"/>
</a>
</g>
</g>
<!-- Node19 -->
<g id="Node000019" class="node">
<title>Node19</title>
<g id="a_Node000019"><a xlink:title=" ">
<polygon fill="#e0e0e0" stroke="#999999" points="450.5,-85 393.5,-85 393.5,-66 450.5,-66 450.5,-85"/>
<text text-anchor="middle" x="422" y="-73" font-family="Helvetica,sans-Serif" font-size="10.00">ostream</text>
</a>
</g>
</g>
<!-- Node18&#45;&gt;Node19 -->
<g id="edge20_Node000018_Node000019" class="edge">
<title>Node18&#45;&gt;Node19</title>
<g id="a_edge20_Node000018_Node000019"><a xlink:title=" ">
<path fill="none" stroke="#63b8ff" d="M448.43,-126.37C443.94,-117.9 436.97,-104.74 431.31,-94.07"/>
<polygon fill="#63b8ff" stroke="#63b8ff" points="434.37,-92.36 426.59,-85.17 428.18,-95.64 434.37,-92.36"/>
</a>
</g>
</g>
</g>
</svg>
