<?xml version="1.0" encoding="UTF-8" standalone="no"?>
<!DOCTYPE svg PUBLIC "-//W3C//DTD SVG 1.1//EN"
 "http://www.w3.org/Graphics/SVG/1.1/DTD/svg11.dtd">
<!-- Generated by graphviz version 2.43.0 (0)
 -->
<!-- Title: /home/runner/work/discrete&#45;modulus/discrete&#45;modulus/cpp/include/discrete_modulus/cunningham.hpp Pages: 1 -->
<svg width="939pt" height="192pt"
 viewBox="0.00 0.00 938.50 192.00" xmlns="http://www.w3.org/2000/svg" xmlns:xlink="http://www.w3.org/1999/xlink">
<g id="graph0" class="graph" transform="scale(1 1) rotate(0) translate(4 188)">
<title>/home/runner/work/discrete&#45;modulus/discrete&#45;modulus/cpp/include/discrete_modulus/cunningham.hpp</title>
<!-- Node1 -->
<g id="Node000001" class="node">
<title>Node1</title>
<g id="a_Node000001"><a xlink:title="Exact spanning tree modulus via Cunningham&#39;s algorithm.">
<polygon fill="#999999" stroke="#666666" points="434,-184 270,-184 270,-132 434,-132 434,-184"/>
<text text-anchor="start" x="278" y="-172" font-family="Helvetica,sans-Serif" font-size="10.00">/home/runner/work/discrete</text>
<text text-anchor="start" x="278" y="-161" font-family="Helvetica,sans-Serif" font-size="10.00">&#45;modulus/discrete&#45;modulus</text>
<text text-anchor="start" x="278" y="-150" font-family="Helvetica,sans-Serif" font-size="10.00">/cpp/include/discrete_modulus</text>
<text text-anchor="middle" x="352" y="-139" font-family="Helvetica,sans-Serif" font-size="10.00">/cunningham.hpp</text>
</a>
</g>
</g>
<!-- Node2 -->
<g id="Node000002" class="node">
<title>Node2</title>
<g id="a_Node000002"><a xlink:title=" ">
<polygon fill="#e0e0e0" stroke="#999999" points="64,-90.5 0,-90.5 0,-71.5 64,-71.5 64,-90.5"/>
<text text-anchor="middle" x="32" y="-78.5" font-family="Helvetica,sans-Serif" font-size="10.00">algorithm</text>
</a>
</g>
</g>
<!-- Node1&#45;&gt;Node2 -->
<g id="edge1_Node000001_Node000002" class="edge">
<title>Node1&#45;&gt;Node2</title>
<g id="a_edge1_Node000001_Node000002"><a xlink:title=" ">
<path fill="none" stroke="#63b8ff" d="M269.91,-141.61C214,-130.5 138.55,-114.29 73,-96 70.53,-95.31 67.99,-94.56 65.44,-93.77"/>
<polygon fill="#63b8ff" stroke="#63b8ff" points="66.3,-90.36 55.7,-90.61 64.14,-97.02 66.3,-90.36"/>
</a>
</g>
</g>
<!-- Node3 -->
<g id="Node000003" class="node">
<title>Node3</title>
<g id="a_Node000003"><a xlink:title=" ">
<polygon fill="#e0e0e0" stroke="#999999" points="134,-90.5 82,-90.5 82,-71.5 134,-71.5 134,-90.5"/>
<text text-anchor="middle" x="108" y="-78.5" font-family="Helvetica,sans-Serif" font-size="10.00">cassert</text>
</a>
</g>
</g>
<!-- Node1&#45;&gt;Node3 -->
<g id="edge2_Node000001_Node000003" class="edge">
<title>Node1&#45;&gt;Node3</title>
<g id="a_edge2_Node000001_Node000003"><a xlink:title=" ">
<path fill="none" stroke="#63b8ff" d="M269.79,-134.98C231.05,-124.11 184.36,-110.27 143,-96 141.38,-95.44 139.73,-94.85 138.07,-94.24"/>
<polygon fill="#63b8ff" stroke="#63b8ff" points="139.19,-90.93 128.6,-90.62 136.7,-97.46 139.19,-90.93"/>
</a>
</g>
</g>
<!-- Node4 -->
<g id="Node000004" class="node">
<title>Node4</title>
<g id="a_Node000004"><a xlink:title=" ">
<polygon fill="#e0e0e0" stroke="#999999" points="208,-90.5 152,-90.5 152,-71.5 208,-71.5 208,-90.5"/>
<text text-anchor="middle" x="180" y="-78.5" font-family="Helvetica,sans-Serif" font-size="10.00">iomanip</text>
</a>
</g>
</g>
<!-- Node1&#45;&gt;Node4 -->
<g id="edge3_Node000001_Node000004" class="edge">
<title>Node1&#45;&gt;Node4</title>
<g id="a_edge3_Node000001_Node000004"><a xlink:title=" ">
<path fill="none" stroke="#63b8ff" d="M294.25,-131.82C265.56,-119.31 232.14,-104.74 208.89,-94.6"/>
<polygon fill="#63b8ff" stroke="#63b8ff" points="210.16,-91.33 199.59,-90.54 207.36,-97.75 210.16,-91.33"/>
</a>
</g>
</g>
<!-- Node5 -->
<g id="Node000005" class="node">
<title>Node5</title>
<g id="a_Node000005"><a xlink:title=" ">
<polygon fill="#e0e0e0" stroke="#999999" points="286,-90.5 226,-90.5 226,-71.5 286,-71.5 286,-90.5"/>
<text text-anchor="middle" x="256" y="-78.5" font-family="Helvetica,sans-Serif" font-size="10.00">iostream</text>
</a>
</g>
</g>
<!-- Node1&#45;&gt;Node5 -->
<g id="edge4_Node000001_Node000005" class="edge">
<title>Node1&#45;&gt;Node5</title>
<g id="a_edge4_Node000001_Node000005"><a xlink:title=" ">
<path fill="none" stroke="#63b8ff" d="M319.77,-131.82C304.9,-120.2 287.75,-106.81 274.99,-96.84"/>
<polygon fill="#63b8ff" stroke="#63b8ff" points="276.97,-93.94 266.94,-90.54 272.66,-99.46 276.97,-93.94"/>
</a>
</g>
</g>
<!-- Node6 -->
<g id="Node000006" class="node">
<title>Node6</title>
<g id="a_Node000006"><a xlink:title=" ">
<polygon fill="#e0e0e0" stroke="#999999" points="305,-24.5 267,-24.5 267,-5.5 305,-5.5 305,-24.5"/>
<text text-anchor="middle" x="286" y="-12.5" font-family="Helvetica,sans-Serif" font-size="10.00">map</text>
</a>
</g>
</g>
<!-- Node1&#45;&gt;Node6 -->
<g id="edge5_Node000001_Node000006" class="edge">
<title>Node1&#45;&gt;Node6</title>
<g id="a_edge5_Node000001_Node000006"><a xlink:title=" ">
<path fill="none" stroke="#63b8ff" d="M340.2,-131.79C327.03,-103.65 306.04,-58.82 294.43,-34"/>
<polygon fill="#63b8ff" stroke="#63b8ff" points="297.48,-32.27 290.07,-24.7 291.14,-35.24 297.48,-32.27"/>
</a>
</g>
</g>
<!-- Node7 -->
<g id="Node000007" class="node">
<title>Node7</title>
<g id="a_Node000007"><a xlink:title=" ">
<polygon fill="#e0e0e0" stroke="#999999" points="502,-90.5 470,-90.5 470,-71.5 502,-71.5 502,-90.5"/>
<text text-anchor="middle" x="486" y="-78.5" font-family="Helvetica,sans-Serif" font-size="10.00">set</text>
</a>
</g>
</g>
<!-- Node1&#45;&gt;Node7 -->
<g id="edge6_Node000001_Node000007" class="edge">
<title>Node1&#45;&gt;Node7</title>
<g id="a_edge6_Node000001_Node000007"><a xlink:title=" ">
<path fill="none" stroke="#63b8ff" d="M396.99,-131.82C418.55,-119.75 443.52,-105.78 461.52,-95.7"/>
<polygon fill="#63b8ff" stroke="#63b8ff" points="463.72,-98.48 470.73,-90.54 460.3,-92.37 463.72,-98.48"/>
</a>
</g>
</g>
<!-- Node8 -->
<g id="Node000008" class="node">
<title>Node8</title>
<g id="a_Node000008"><a xlink:title=" ">
<polygon fill="#e0e0e0" stroke="#999999" points="565.5,-90.5 520.5,-90.5 520.5,-71.5 565.5,-71.5 565.5,-90.5"/>
<text text-anchor="middle" x="543" y="-78.5" font-family="Helvetica,sans-Serif" font-size="10.00">utility</text>
</a>
</g>
</g>
<!-- Node1&#45;&gt;Node8 -->
<g id="edge7_Node000001_Node000008" class="edge">
<title>Node1&#45;&gt;Node8</title>
<g id="a_edge7_Node000001_Node000008"><a xlink:title=" ">
<path fill="none" stroke="#63b8ff" d="M419.58,-131.86C447.93,-121.11 481.19,-108.23 511,-96 512.17,-95.52 513.36,-95.03 514.56,-94.52"/>
<polygon fill="#63b8ff" stroke="#63b8ff" points="515.95,-97.73 523.77,-90.58 513.2,-91.3 515.95,-97.73"/>
</a>
</g>
</g>
<!-- Node9 -->
<g id="Node000009" class="node">
<title>Node9</title>
<g id="a_Node000009"><a xlink:title=" ">
<polygon fill="#e0e0e0" stroke="#999999" points="370.5,-24.5 323.5,-24.5 323.5,-5.5 370.5,-5.5 370.5,-24.5"/>
<text text-anchor="middle" x="347" y="-12.5" font-family="Helvetica,sans-Serif" font-size="10.00">vector</text>
</a>
</g>
</g>
<!-- Node1&#45;&gt;Node9 -->
<g id="edge8_Node000001_Node000009" class="edge">
<title>Node1&#45;&gt;Node9</title>
<g id="a_edge8_Node000001_Node000009"><a xlink:title=" ">
<path fill="none" stroke="#63b8ff" d="M351.11,-131.79C350.12,-104.03 348.56,-60.01 347.67,-35.01"/>
<polygon fill="#63b8ff" stroke="#63b8ff" points="351.16,-34.57 347.31,-24.7 344.17,-34.82 351.16,-34.57"/>
</a>
</g>
</g>
<!-- Node10 -->
<g id="Node000010" class="node">
<title>Node10</title>
<g id="a_Node000010"><a xlink:title=" ">
<polygon fill="#e0e0e0" stroke="#999999" points="724,-96 584,-96 584,-66 724,-66 724,-96"/>
<text text-anchor="start" x="592" y="-84" font-family="Helvetica,sans-Serif" font-size="10.00">boost/graph/push_relabel</text>
<text text-anchor="middle" x="654" y="-73" font-family="Helvetica,sans-Serif" font-size="10.00">_max_flow.hpp</text>
</a>
</g>
</g>
<!-- Node1&#45;&gt;Node10 -->
<g id="edge9_Node000001_Node000010" class="edge">
<title>Node1&#45;&gt;Node10</title>
<g id="a_edge9_Node000001_Node000010"><a xlink:title=" ">
<path fill="none" stroke="#63b8ff" d="M434.12,-136.6C482.19,-124.67 542.1,-109.79 587.25,-98.58"/>
<polygon fill="#63b8ff" stroke="#63b8ff" points="588.36,-101.91 597.22,-96.1 586.68,-95.11 588.36,-101.91"/>
</a>
</g>
</g>
<!-- Node11 -->
<g id="Node000011" class="node">
<title>Node11</title>
<g id="a_Node000011"><a xlink:title=" ">
<polygon fill="#e0e0e0" stroke="#999999" points="847.5,-90.5 742.5,-90.5 742.5,-71.5 847.5,-71.5 847.5,-90.5"/>
<text text-anchor="middle" x="795" y="-78.5" font-family="Helvetica,sans-Serif" font-size="10.00">boost/rational.hpp</text>
</a>
</g>
</g>
<!-- Node1&#45;&gt;Node11 -->
<g id="edge10_Node000001_Node000011" class="edge">
<title>Node1&#45;&gt;Node11</title>
<g id="a_edge10_Node000001_Node000011"><a xlink:title=" ">
<path fill="none" stroke="#63b8ff" d="M434.02,-145.4C511.35,-134.1 630.39,-115.78 733,-96 738.15,-95.01 743.53,-93.9 748.86,-92.76"/>
<polygon fill="#63b8ff" stroke="#63b8ff" points="750,-96.09 759.02,-90.53 748.5,-89.25 750,-96.09"/>
</a>
</g>
</g>
<!-- Node12 -->
<g id="Node000012" class="node">
<title>Node12</title>
<g id="a_Node000012"><a xlink:href="graphs_8hpp.html" target="_top" xlink:title="Graph/flow&#45;graph type aliases, subgraph/component helpers, and demo graph generators used by cunningh...">
<polygon fill="white" stroke="#666666" points="451.5,-90.5 380.5,-90.5 380.5,-71.5 451.5,-71.5 451.5,-90.5"/>
<text text-anchor="middle" x="416" y="-78.5" font-family="Helvetica,sans-Serif" font-size="10.00">graphs.hpp</text>
</a>
</g>
</g>
<!-- Node1&#45;&gt;Node12 -->
<g id="edge11_Node000001_Node000012" class="edge">
<title>Node1&#45;&gt;Node12</title>
<g id="a_edge11_Node000001_Node000012"><a xlink:title=" ">
<path fill="none" stroke="#63b8ff" d="M373.67,-131.61C382.98,-120.7 393.6,-108.25 401.87,-98.56"/>
<polygon fill="#63b8ff" stroke="#63b8ff" points="404.62,-100.73 408.45,-90.85 399.29,-96.19 404.62,-100.73"/>
</a>
</g>
</g>
<!-- Node12&#45;&gt;Node6 -->
<g id="edge13_Node000012_Node000006" class="edge">
<title>Node12&#45;&gt;Node6</title>
<g id="a_edge13_Node000012_Node000006"><a xlink:title=" ">
<path fill="none" stroke="#63b8ff" d="M398.29,-71.37C377.93,-61.44 343.52,-44.61 314,-30 313.45,-29.73 312.9,-29.45 312.34,-29.18"/>
<polygon fill="#63b8ff" stroke="#63b8ff" points="313.68,-25.93 303.17,-24.61 310.56,-32.2 313.68,-25.93"/>
</a>
</g>
</g>
<!-- Node12&#45;&gt;Node9 -->
<g id="edge15_Node000012_Node000009" class="edge">
<title>Node12&#45;&gt;Node9</title>
<g id="a_edge15_Node000012_Node000009"><a xlink:title=" ">
<path fill="none" stroke="#63b8ff" d="M406.69,-71.37C395.85,-61.31 377.7,-44.48 364.26,-32.01"/>
<polygon fill="#63b8ff" stroke="#63b8ff" points="366.31,-29.14 356.6,-24.91 361.55,-34.27 366.31,-29.14"/>
</a>
</g>
</g>
<!-- Node13 -->
<g id="Node000013" class="node">
<title>Node13</title>
<g id="a_Node000013"><a xlink:title=" ">
<polygon fill="#e0e0e0" stroke="#999999" points="930.5,-24.5 883.5,-24.5 883.5,-5.5 930.5,-5.5 930.5,-24.5"/>
<text text-anchor="middle" x="907" y="-12.5" font-family="Helvetica,sans-Serif" font-size="10.00">cmath</text>
</a>
</g>
</g>
<!-- Node12&#45;&gt;Node13 -->
<g id="edge12_Node000012_Node000013" class="edge">
<title>Node12&#45;&gt;Node13</title>
<g id="a_edge12_Node000012_Node000013"><a xlink:title=" ">
<path fill="none" stroke="#63b8ff" d="M440.04,-71.48C446.75,-69.38 454.1,-67.36 461,-66 641.79,-30.43 695.21,-74.53 874,-30 875.95,-29.51 877.93,-28.93 879.9,-28.28"/>
<polygon fill="#63b8ff" stroke="#63b8ff" points="881.44,-31.44 889.54,-24.61 878.95,-24.9 881.44,-31.44"/>
</a>
</g>
</g>
<!-- Node14 -->
<g id="Node000014" class="node">
<title>Node14</title>
<g id="a_Node000014"><a xlink:title=" ">
<polygon fill="#e0e0e0" stroke="#999999" points="443,-24.5 389,-24.5 389,-5.5 443,-5.5 443,-24.5"/>
<text text-anchor="middle" x="416" y="-12.5" font-family="Helvetica,sans-Serif" font-size="10.00">random</text>
</a>
</g>
</g>
<!-- Node12&#45;&gt;Node14 -->
<g id="edge14_Node000012_Node000014" class="edge">
<title>Node12&#45;&gt;Node14</title>
<g id="a_edge14_Node000012_Node000014"><a xlink:title=" ">
<path fill="none" stroke="#63b8ff" d="M416,-71.37C416,-62.16 416,-47.29 416,-35.27"/>
<polygon fill="#63b8ff" stroke="#63b8ff" points="419.5,-34.91 416,-24.91 412.5,-34.91 419.5,-34.91"/>
</a>
</g>
</g>
<!-- Node15 -->
<g id="Node000015" class="node">
<title>Node15</title>
<g id="a_Node000015"><a xlink:title=" ">
<polygon fill="#e0e0e0" stroke="#999999" points="588.5,-30 461.5,-30 461.5,0 588.5,0 588.5,-30"/>
<text text-anchor="start" x="469.5" y="-18" font-family="Helvetica,sans-Serif" font-size="10.00">boost/graph/adjacency</text>
<text text-anchor="middle" x="525" y="-7" font-family="Helvetica,sans-Serif" font-size="10.00">_list.hpp</text>
</a>
</g>
</g>
<!-- Node12&#45;&gt;Node15 -->
<g id="edge16_Node000012_Node000015" class="edge">
<title>Node12&#45;&gt;Node15</title>
<g id="a_edge16_Node000012_Node000015"><a xlink:title=" ">
<path fill="none" stroke="#63b8ff" d="M430.7,-71.37C446.39,-62.16 471.76,-47.26 492.24,-35.24"/>
<polygon fill="#63b8ff" stroke="#63b8ff" points="494.11,-38.2 500.96,-30.12 490.56,-32.16 494.11,-38.2"/>
</a>
</g>
</g>
<!-- Node16 -->
<g id="Node000016" class="node">
<title>Node16</title>
<g id="a_Node000016"><a xlink:title=" ">
<polygon fill="#e0e0e0" stroke="#999999" points="735,-30 607,-30 607,0 735,0 735,-30"/>
<text text-anchor="start" x="615" y="-18" font-family="Helvetica,sans-Serif" font-size="10.00">boost/graph/connected</text>
<text text-anchor="middle" x="671" y="-7" font-family="Helvetica,sans-Serif" font-size="10.00">_components.hpp</text>
</a>
</g>
</g>
<!-- Node12&#45;&gt;Node16 -->
<g id="edge17_Node000012_Node000016" class="edge">
<title>Node12&#45;&gt;Node16</title>
<g id="a_edge17_Node000012_Node000016"><a xlink:title=" ">
<path fill="none" stroke="#63b8ff" d="M442.56,-71.41C448.6,-69.55 455,-67.64 461,-66 505.91,-53.68 556.7,-41.54 597.07,-32.31"/>
<polygon fill="#63b8ff" stroke="#63b8ff" points="597.87,-35.72 606.84,-30.09 596.31,-28.89 597.87,-35.72"/>
</a>
</g>
</g>
<!-- Node17 -->
<g id="Node000017" class="node">
<title>Node17</title>
<g id="a_Node000017"><a xlink:title=" ">
<polygon fill="#e0e0e0" stroke="#999999" points="865,-30 753,-30 753,0 865,0 865,-30"/>
<text text-anchor="start" x="761" y="-18" font-family="Helvetica,sans-Serif" font-size="10.00">boost/graph/filtered</text>
<text text-anchor="middle" x="809" y="-7" font-family="Helvetica,sans-Serif" font-size="10.00">_graph.hpp</text>
</a>
</g>
</g>
<!-- Node12&#45;&gt;Node17 -->
<g id="edge18_Node000012_Node000017" class="edge">
<title>Node12&#45;&gt;Node17</title>
<g id="a_edge18_Node000012_Node000017"><a xlink:title=" ">
<path fill="none" stroke="#63b8ff" d="M441.02,-71.36C447.47,-69.37 454.44,-67.43 461,-66 581.75,-39.75 617.23,-50.77 742.69,-30.12"/>
<polygon fill="#63b8ff" stroke="#63b8ff" points="743.41,-33.55 752.69,-28.44 742.25,-26.64 743.41,-33.55"/>
</a>
</g>
</g>
</g>
</svg>
