<?xml version="1.0" encoding="UTF-8" standalone="no"?>
<!DOCTYPE svg PUBLIC "-//W3C//DTD SVG 1.1//EN"
 "http://www.w3.org/Graphics/SVG/1.1/DTD/svg11.dtd">
<!-- Generated by graphviz version 2.43.0 (0)
 -->
<!-- Title: include/discrete_modulus/graphs.hpp Pages: 1 -->
<svg width="199pt" height="170pt"
 viewBox="0.00 0.00 199.00 170.00" xmlns="http://www.w3.org/2000/svg" xmlns:xlink="http://www.w3.org/1999/xlink">
<g id="graph0" class="graph" transform="scale(1 1) rotate(0) translate(4 166)">
<title>include/discrete_modulus/graphs.hpp</title>
<!-- Node1 -->
<g id="Node000001" class="node">
<title>Node1</title>
<g id="a_Node000001"><a xlink:title="Graph/flow&#45;graph type aliases, subgraph/component helpers, and demo graph generators used by cunningh...">
<polygon fill="#999999" stroke="#666666" points="141,-162 0,-162 0,-132 141,-132 141,-162"/>
<text text-anchor="start" x="8" y="-150" font-family="Helvetica,sans-Serif" font-size="10.00">include/discrete_modulus</text>
<text text-anchor="middle" x="70.5" y="-139" font-family="Helvetica,sans-Serif" font-size="10.00">/graphs.hpp</text>
</a>
</g>
</g>
<!-- Node2 -->
<g id="Node000002" class="node">
<title>Node2</title>
<g id="a_Node000002"><a xlink:href="cunningham_8hpp.html" target="_top" xlink:title="Exact spanning tree modulus via Cunningham&#39;s algorithm.">
<polygon fill="white" stroke="#666666" points="141,-30 0,-30 0,0 141,0 141,-30"/>
<text text-anchor="start" x="8" y="-18" font-family="Helvetica,sans-Serif" font-size="10.00">include/discrete_modulus</text>
<text text-anchor="middle" x="70.5" y="-7" font-family="Helvetica,sans-Serif" font-size="10.00">/cunningham.hpp</text>
</a>
</g>
</g>
<!-- Node1&#45;&gt;Node2 -->
<g id="edge1_Node000001_Node000002" class="edge">
<title>Node1&#45;&gt;Node2</title>
<g id="a_edge1_Node000001_Node000002"><a xlink:title=" ">
<path fill="none" stroke="#63b8ff" d="M53.25,-123.14C48.1,-115 43.13,-105.5 40.5,-96 36.94,-83.15 36.94,-78.85 40.5,-66 44.12,-52.93 52.17,-39.84 59.02,-30.34"/>
<polygon fill="#63b8ff" stroke="#63b8ff" points="50.52,-125.35 59.02,-131.66 56.31,-121.42 50.52,-125.35"/>
</a>
</g>
</g>
<!-- Node3 -->
<g id="Node000003" class="node">
<title>Node3</title>
<g id="a_Node000003"><a xlink:href="solver__trace_8hpp.html" target="_top" xlink:title="Opt&#45;in per&#45;round trace recording for spanning_tree_modulus, and a versioned JSON writer for the recor...">
<polygon fill="white" stroke="#666666" points="191,-96 50,-96 50,-66 191,-66 191,-96"/>
<text text-anchor="start" x="58" y="-84" font-family="Helvetica,sans-Serif" font-size="10.00">include/discrete_modulus</text>
<text text-anchor="middle" x="120.5" y="-73" font-family="Helvetica,sans-Serif" font-size="10.00">/solver_trace.hpp</text>
</a>
</g>
</g>
<!-- Node1&#45;&gt;Node3 -->
<g id="edge2_Node000001_Node000003" class="edge">
<title>Node1&#45;&gt;Node3</title>
<g id="a_edge2_Node000001_Node000003"><a xlink:title=" ">
<path fill="none" stroke="#63b8ff" d="M87.84,-123.81C95,-114.64 103.1,-104.28 109.43,-96.16"/>
<polygon fill="#63b8ff" stroke="#63b8ff" points="85,-121.76 81.6,-131.8 90.51,-126.07 85,-121.76"/>
</a>
</g>
</g>
<!-- Node3&#45;&gt;Node2 -->
<g id="edge3_Node000003_Node000002" class="edge">
<title>Node3&#45;&gt;Node2</title>
<g id="a_edge3_Node000003_Node000002"><a xlink:title=" ">
<path fill="none" stroke="#63b8ff" d="M103.16,-57.81C96,-48.64 87.9,-38.28 81.57,-30.16"/>
<polygon fill="#63b8ff" stroke="#63b8ff" points="100.49,-60.07 109.4,-65.8 106,-55.76 100.49,-60.07"/>
</a>
</g>
</g>
</g>
</svg>
