<?xml version="1.0" encoding="UTF-8" standalone="no"?>
<!DOCTYPE svg PUBLIC "-//W3C//DTD SVG 1.1//EN"
 "http://www.w3.org/Graphics/SVG/1.1/DTD/svg11.dtd">
<!-- Generated by graphviz version 2.43.0 (0)
 -->
<!-- Title: /home/runner/work/discrete&#45;modulus/discrete&#45;modulus/cpp/include/discrete_modulus/graphs.hpp Pages: 1 -->
<svg width="671pt" height="126pt"
 viewBox="0.00 0.00 670.50 126.00" xmlns="http://www.w3.org/2000/svg" xmlns:xlink="http://www.w3.org/1999/xlink">
<g id="graph0" class="graph" transform="scale(1 1) rotate(0) translate(4 122)">
<title>/home/runner/work/discrete&#45;modulus/discrete&#45;modulus/cpp/include/discrete_modulus/graphs.hpp</title>
<!-- Node1 -->
<g id="Node000001" class="node">
<title>Node1</title>
<g id="a_Node000001"><a xlink:title="Graph/flow&#45;graph type aliases, subgraph/component helpers, and demo graph generators used by cunningh...">
<polygon fill="#999999" stroke="#666666" points="299.5,-118 135.5,-118 135.5,-66 299.5,-66 299.5,-118"/>
<text text-anchor="start" x="143.5" y="-106" font-family="Helvetica,sans-Serif" font-size="10.00">/home/runner/work/discrete</text>
<text text-anchor="start" x="143.5" y="-95" font-family="Helvetica,sans-Serif" font-size="10.00">&#45;modulus/discrete&#45;modulus</text>
<text text-anchor="start" x="143.5" y="-84" font-family="Helvetica,sans-Serif" font-size="10.00">/cpp/include/discrete_modulus</text>
<text text-anchor="middle" x="217.5" y="-73" font-family="Helvetica,sans-Serif" font-size="10.00">/graphs.hpp</text>
</a>
</g>
</g>
<!-- Node2 -->
<g id="Node000002" class="node">
<title>Node2</title>
<g id="a_Node000002"><a xlink:title=" ">
<polygon fill="#e0e0e0" stroke="#999999" points="47,-24.5 0,-24.5 0,-5.5 47,-5.5 47,-24.5"/>
<text text-anchor="middle" x="23.5" y="-12.5" font-family="Helvetica,sans-Serif" font-size="10.00">cmath</text>
</a>
</g>
</g>
<!-- Node1&#45;&gt;Node2 -->
<g id="edge1_Node000001_Node000002" class="edge">
<title>Node1&#45;&gt;Node2</title>
<g id="a_edge1_Node000001_Node000002"><a xlink:title=" ">
<path fill="none" stroke="#63b8ff" d="M149.51,-65.91C120.72,-55.11 86.87,-42.19 56.5,-30 55.3,-29.52 54.07,-29.02 52.84,-28.52"/>
<polygon fill="#63b8ff" stroke="#63b8ff" points="53.92,-25.17 43.34,-24.57 51.23,-31.64 53.92,-25.17"/>
</a>
</g>
</g>
<!-- Node3 -->
<g id="Node000003" class="node">
<title>Node3</title>
<g id="a_Node000003"><a xlink:title=" ">
<polygon fill="#e0e0e0" stroke="#999999" points="103.5,-24.5 65.5,-24.5 65.5,-5.5 103.5,-5.5 103.5,-24.5"/>
<text text-anchor="middle" x="84.5" y="-12.5" font-family="Helvetica,sans-Serif" font-size="10.00">map</text>
</a>
</g>
</g>
<!-- Node1&#45;&gt;Node3 -->
<g id="edge2_Node000001_Node000003" class="edge">
<title>Node1&#45;&gt;Node3</title>
<g id="a_edge2_Node000001_Node000003"><a xlink:title=" ">
<path fill="none" stroke="#63b8ff" d="M172.84,-65.82C151.45,-53.75 126.66,-39.78 108.8,-29.7"/>
<polygon fill="#63b8ff" stroke="#63b8ff" points="110.08,-26.41 99.65,-24.54 106.64,-32.5 110.08,-26.41"/>
</a>
</g>
</g>
<!-- Node4 -->
<g id="Node000004" class="node">
<title>Node4</title>
<g id="a_Node000004"><a xlink:title=" ">
<polygon fill="#e0e0e0" stroke="#999999" points="175.5,-24.5 121.5,-24.5 121.5,-5.5 175.5,-5.5 175.5,-24.5"/>
<text text-anchor="middle" x="148.5" y="-12.5" font-family="Helvetica,sans-Serif" font-size="10.00">random</text>
</a>
</g>
</g>
<!-- Node1&#45;&gt;Node4 -->
<g id="edge3_Node000001_Node000004" class="edge">
<title>Node1&#45;&gt;Node4</title>
<g id="a_edge3_Node000001_Node000004"><a xlink:title=" ">
<path fill="none" stroke="#63b8ff" d="M194.14,-65.61C184,-54.59 172.42,-42 163.46,-32.26"/>
<polygon fill="#63b8ff" stroke="#63b8ff" points="165.99,-29.84 156.64,-24.85 160.84,-34.58 165.99,-29.84"/>
</a>
</g>
</g>
<!-- Node5 -->
<g id="Node000005" class="node">
<title>Node5</title>
<g id="a_Node000005"><a xlink:title=" ">
<polygon fill="#e0e0e0" stroke="#999999" points="241,-24.5 194,-24.5 194,-5.5 241,-5.5 241,-24.5"/>
<text text-anchor="middle" x="217.5" y="-12.5" font-family="Helvetica,sans-Serif" font-size="10.00">vector</text>
</a>
</g>
</g>
<!-- Node1&#45;&gt;Node5 -->
<g id="edge4_Node000001_Node000005" class="edge">
<title>Node1&#45;&gt;Node5</title>
<g id="a_edge4_Node000001_Node000005"><a xlink:title=" ">
<path fill="none" stroke="#63b8ff" d="M217.5,-65.61C217.5,-55.58 217.5,-44.25 217.5,-34.96"/>
<polygon fill="#63b8ff" stroke="#63b8ff" points="221,-34.85 217.5,-24.85 214,-34.85 221,-34.85"/>
</a>
</g>
</g>
<!-- Node6 -->
<g id="Node000006" class="node">
<title>Node6</title>
<g id="a_Node000006"><a xlink:title=" ">
<polygon fill="#e0e0e0" stroke="#999999" points="386,-30 259,-30 259,0 386,0 386,-30"/>
<text text-anchor="start" x="267" y="-18" font-family="Helvetica,sans-Serif" font-size="10.00">boost/graph/adjacency</text>
<text text-anchor="middle" x="322.5" y="-7" font-family="Helvetica,sans-Serif" font-size="10.00">_list.hpp</text>
</a>
</g>
</g>
<!-- Node1&#45;&gt;Node6 -->
<g id="edge5_Node000001_Node000006" class="edge">
<title>Node1&#45;&gt;Node6</title>
<g id="a_edge5_Node000001_Node000006"><a xlink:title=" ">
<path fill="none" stroke="#63b8ff" d="M252.76,-65.82C266.31,-56.14 281.59,-45.22 294.38,-36.08"/>
<polygon fill="#63b8ff" stroke="#63b8ff" points="296.69,-38.74 302.79,-30.08 292.62,-33.04 296.69,-38.74"/>
</a>
</g>
</g>
<!-- Node7 -->
<g id="Node000007" class="node">
<title>Node7</title>
<g id="a_Node000007"><a xlink:title=" ">
<polygon fill="#e0e0e0" stroke="#999999" points="532.5,-30 404.5,-30 404.5,0 532.5,0 532.5,-30"/>
<text text-anchor="start" x="412.5" y="-18" font-family="Helvetica,sans-Serif" font-size="10.00">boost/graph/connected</text>
<text text-anchor="middle" x="468.5" y="-7" font-family="Helvetica,sans-Serif" font-size="10.00">_components.hpp</text>
</a>
</g>
</g>
<!-- Node1&#45;&gt;Node7 -->
<g id="edge6_Node000001_Node000007" class="edge">
<title>Node1&#45;&gt;Node7</title>
<g id="a_edge6_Node000001_Node000007"><a xlink:title=" ">
<path fill="none" stroke="#63b8ff" d="M299.69,-66.44C336.23,-55.52 378.35,-42.94 411.37,-33.07"/>
<polygon fill="#63b8ff" stroke="#63b8ff" points="412.74,-36.32 421.32,-30.1 410.73,-29.61 412.74,-36.32"/>
</a>
</g>
</g>
<!-- Node8 -->
<g id="Node000008" class="node">
<title>Node8</title>
<g id="a_Node000008"><a xlink:title=" ">
<polygon fill="#e0e0e0" stroke="#999999" points="662.5,-30 550.5,-30 550.5,0 662.5,0 662.5,-30"/>
<text text-anchor="start" x="558.5" y="-18" font-family="Helvetica,sans-Serif" font-size="10.00">boost/graph/filtered</text>
<text text-anchor="middle" x="606.5" y="-7" font-family="Helvetica,sans-Serif" font-size="10.00">_graph.hpp</text>
</a>
</g>
</g>
<!-- Node1&#45;&gt;Node8 -->
<g id="edge7_Node000001_Node000008" class="edge">
<title>Node1&#45;&gt;Node8</title>
<g id="a_edge7_Node000001_Node000008"><a xlink:title=" ">
<path fill="none" stroke="#63b8ff" d="M299.51,-76.17C362.71,-64.6 452.53,-47.85 540.6,-30.15"/>
<polygon fill="#63b8ff" stroke="#63b8ff" points="541.39,-33.56 550.5,-28.16 540.01,-26.7 541.39,-33.56"/>
</a>
</g>
</g>
</g>
</svg>
