<?xml version="1.0" encoding="UTF-8" standalone="no"?>
<!DOCTYPE svg PUBLIC "-//W3C//DTD SVG 1.1//EN"
 "http://www.w3.org/Graphics/SVG/1.1/DTD/svg11.dtd">
<!-- Generated by graphviz version 2.43.0 (0)
 -->
<!-- Title: include/discrete_modulus/solver_trace.hpp Pages: 1 -->
<svg width="795pt" height="159pt"
 viewBox="0.00 0.00 794.50 159.00" xmlns="http://www.w3.org/2000/svg" xmlns:xlink="http://www.w3.org/1999/xlink">
<g id="graph0" class="graph" transform="scale(1 1) rotate(0) translate(4 155)">
<title>include/discrete_modulus/solver_trace.hpp</title>
<!-- Node1 -->
<g id="Node000001" class="node">
<title>Node1</title>
<g id="a_Node000001"><a xlink:title="Opt&#45;in per&#45;round trace recording for spanning_tree_modulus, and a versioned JSON writer for the recor...">
<polygon fill="#999999" stroke="#666666" points="219,-151 78,-151 78,-121 219,-121 219,-151"/>
<text text-anchor="start" x="86" y="-139" font-family="Helvetica,sans-Serif" font-size="10.00">include/discrete_modulus</text>
<text text-anchor="middle" x="148.5" y="-128" font-family="Helvetica,sans-Serif" font-size="10.00">/solver_trace.hpp</text>
</a>
</g>
</g>
<!-- Node2 -->
<g id="Node000002" class="node">
<title>Node2</title>
<g id="a_Node000002"><a xlink:title=" ">
<polygon fill="#e0e0e0" stroke="#999999" points="57,-85 0,-85 0,-66 57,-66 57,-85"/>
<text text-anchor="middle" x="28.5" y="-73" font-family="Helvetica,sans-Serif" font-size="10.00">ostream</text>
</a>
</g>
</g>
<!-- Node1&#45;&gt;Node2 -->
<g id="edge1_Node000001_Node000002" class="edge">
<title>Node1&#45;&gt;Node2</title>
<g id="a_edge1_Node000001_Node000002"><a xlink:title=" ">
<path fill="none" stroke="#63b8ff" d="M119.76,-120.99C100.18,-111.45 74.45,-98.9 55.3,-89.57"/>
<polygon fill="#63b8ff" stroke="#63b8ff" points="56.74,-86.38 46.22,-85.14 53.68,-92.67 56.74,-86.38"/>
</a>
</g>
</g>
<!-- Node3 -->
<g id="Node000003" class="node">
<title>Node3</title>
<g id="a_Node000003"><a xlink:title=" ">
<polygon fill="#e0e0e0" stroke="#999999" points="120,-85 75,-85 75,-66 120,-66 120,-85"/>
<text text-anchor="middle" x="97.5" y="-73" font-family="Helvetica,sans-Serif" font-size="10.00">utility</text>
</a>
</g>
</g>
<!-- Node1&#45;&gt;Node3 -->
<g id="edge2_Node000001_Node000003" class="edge">
<title>Node1&#45;&gt;Node3</title>
<g id="a_edge2_Node000001_Node000003"><a xlink:title=" ">
<path fill="none" stroke="#63b8ff" d="M136.15,-120.84C128.83,-112.43 119.5,-101.74 111.85,-92.96"/>
<polygon fill="#63b8ff" stroke="#63b8ff" points="114.35,-90.5 105.14,-85.27 109.08,-95.1 114.35,-90.5"/>
</a>
</g>
</g>
<!-- Node4 -->
<g id="Node000004" class="node">
<title>Node4</title>
<g id="a_Node000004"><a xlink:title=" ">
<polygon fill="#e0e0e0" stroke="#999999" points="171,-24.5 124,-24.5 124,-5.5 171,-5.5 171,-24.5"/>
<text text-anchor="middle" x="147.5" y="-12.5" font-family="Helvetica,sans-Serif" font-size="10.00">vector</text>
</a>
</g>
</g>
<!-- Node1&#45;&gt;Node4 -->
<g id="edge3_Node000001_Node000004" class="edge">
<title>Node1&#45;&gt;Node4</title>
<g id="a_edge3_Node000001_Node000004"><a xlink:title=" ">
<path fill="none" stroke="#63b8ff" d="M148.38,-120.88C148.2,-99.51 147.86,-58.89 147.66,-34.96"/>
<polygon fill="#63b8ff" stroke="#63b8ff" points="151.16,-34.68 147.57,-24.71 144.16,-34.74 151.16,-34.68"/>
</a>
</g>
</g>
<!-- Node5 -->
<g id="Node000005" class="node">
<title>Node5</title>
<g id="a_Node000005"><a xlink:title=" ">
<polygon fill="#e0e0e0" stroke="#999999" points="282,-85 177,-85 177,-66 282,-66 282,-85"/>
<text text-anchor="middle" x="229.5" y="-73" font-family="Helvetica,sans-Serif" font-size="10.00">boost/rational.hpp</text>
</a>
</g>
</g>
<!-- Node1&#45;&gt;Node5 -->
<g id="edge4_Node000001_Node000005" class="edge">
<title>Node1&#45;&gt;Node5</title>
<g id="a_edge4_Node000001_Node000005"><a xlink:title=" ">
<path fill="none" stroke="#63b8ff" d="M168.11,-120.84C180.47,-111.91 196.4,-100.41 208.93,-91.35"/>
<polygon fill="#63b8ff" stroke="#63b8ff" points="211.3,-93.96 217.36,-85.27 207.21,-88.28 211.3,-93.96"/>
</a>
</g>
</g>
<!-- Node6 -->
<g id="Node000006" class="node">
<title>Node6</title>
<g id="a_Node000006"><a xlink:href="graphs_8hpp.html" target="_top" xlink:title="Graph/flow&#45;graph type aliases, subgraph/component helpers, and demo graph generators used by cunningh...">
<polygon fill="white" stroke="#666666" points="372,-85 301,-85 301,-66 372,-66 372,-85"/>
<text text-anchor="middle" x="336.5" y="-73" font-family="Helvetica,sans-Serif" font-size="10.00">graphs.hpp</text>
</a>
</g>
</g>
<!-- Node1&#45;&gt;Node6 -->
<g id="edge5_Node000001_Node000006" class="edge">
<title>Node1&#45;&gt;Node6</title>
<g id="a_edge5_Node000001_Node000006"><a xlink:title=" ">
<path fill="none" stroke="#63b8ff" d="M193.53,-120.99C225.84,-110.94 268.84,-97.55 299.23,-88.1"/>
<polygon fill="#63b8ff" stroke="#63b8ff" points="300.5,-91.37 309.01,-85.05 298.42,-84.68 300.5,-91.37"/>
</a>
</g>
</g>
<!-- Node6&#45;&gt;Node4 -->
<g id="edge9_Node000006_Node000004" class="edge">
<title>Node6&#45;&gt;Node4</title>
<g id="a_edge9_Node000006_Node000004"><a xlink:title=" ">
<path fill="none" stroke="#63b8ff" d="M301.15,-65.95C269.04,-57.84 220.57,-44.73 179.5,-30 178.11,-29.5 176.69,-28.97 175.27,-28.42"/>
<polygon fill="#63b8ff" stroke="#63b8ff" points="176.52,-25.15 165.94,-24.58 173.85,-31.62 176.52,-25.15"/>
</a>
</g>
</g>
<!-- Node7 -->
<g id="Node000007" class="node">
<title>Node7</title>
<g id="a_Node000007"><a xlink:title=" ">
<polygon fill="#e0e0e0" stroke="#999999" points="236,-24.5 189,-24.5 189,-5.5 236,-5.5 236,-24.5"/>
<text text-anchor="middle" x="212.5" y="-12.5" font-family="Helvetica,sans-Serif" font-size="10.00">cmath</text>
</a>
</g>
</g>
<!-- Node6&#45;&gt;Node7 -->
<g id="edge6_Node000006_Node000007" class="edge">
<title>Node6&#45;&gt;Node7</title>
<g id="a_edge6_Node000006_Node000007"><a xlink:title=" ">
<path fill="none" stroke="#63b8ff" d="M318.47,-65.99C297.81,-56.25 263.72,-40.16 239.8,-28.88"/>
<polygon fill="#63b8ff" stroke="#63b8ff" points="241.09,-25.62 230.55,-24.52 238.1,-31.95 241.09,-25.62"/>
</a>
</g>
</g>
<!-- Node8 -->
<g id="Node000008" class="node">
<title>Node8</title>
<g id="a_Node000008"><a xlink:title=" ">
<polygon fill="#e0e0e0" stroke="#999999" points="292.5,-24.5 254.5,-24.5 254.5,-5.5 292.5,-5.5 292.5,-24.5"/>
<text text-anchor="middle" x="273.5" y="-12.5" font-family="Helvetica,sans-Serif" font-size="10.00">map</text>
</a>
</g>
</g>
<!-- Node6&#45;&gt;Node8 -->
<g id="edge7_Node000006_Node000008" class="edge">
<title>Node6&#45;&gt;Node8</title>
<g id="a_edge7_Node000006_Node000008"><a xlink:title=" ">
<path fill="none" stroke="#63b8ff" d="M327.2,-65.87C317.53,-56.88 302.16,-42.61 290.34,-31.64"/>
<polygon fill="#63b8ff" stroke="#63b8ff" points="292.54,-28.91 282.83,-24.67 287.78,-34.04 292.54,-28.91"/>
</a>
</g>
</g>
<!-- Node9 -->
<g id="Node000009" class="node">
<title>Node9</title>
<g id="a_Node000009"><a xlink:title=" ">
<polygon fill="#e0e0e0" stroke="#999999" points="364.5,-24.5 310.5,-24.5 310.5,-5.5 364.5,-5.5 364.5,-24.5"/>
<text text-anchor="middle" x="337.5" y="-12.5" font-family="Helvetica,sans-Serif" font-size="10.00">random</text>
</a>
</g>
</g>
<!-- Node6&#45;&gt;Node9 -->
<g id="edge8_Node000006_Node000009" class="edge">
<title>Node6&#45;&gt;Node9</title>
<g id="a_edge8_Node000006_Node000009"><a xlink:title=" ">
<path fill="none" stroke="#63b8ff" d="M336.65,-65.87C336.79,-57.75 337,-45.31 337.18,-34.89"/>
<polygon fill="#63b8ff" stroke="#63b8ff" points="340.68,-34.73 337.35,-24.67 333.68,-34.61 340.68,-34.73"/>
</a>
</g>
</g>
<!-- Node10 -->
<g id="Node000010" class="node">
<title>Node10</title>
<g id="a_Node000010"><a xlink:title=" ">
<polygon fill="#e0e0e0" stroke="#999999" points="510,-30 383,-30 383,0 510,0 510,-30"/>
<text text-anchor="start" x="391" y="-18" font-family="Helvetica,sans-Serif" font-size="10.00">boost/graph/adjacency</text>
<text text-anchor="middle" x="446.5" y="-7" font-family="Helvetica,sans-Serif" font-size="10.00">_list.hpp</text>
</a>
</g>
</g>
<!-- Node6&#45;&gt;Node10 -->
<g id="edge10_Node000006_Node000010" class="edge">
<title>Node6&#45;&gt;Node10</title>
<g id="a_edge10_Node000006_Node000010"><a xlink:title=" ">
<path fill="none" stroke="#63b8ff" d="M352.73,-65.87C368,-57.75 391.39,-45.31 410.98,-34.89"/>
<polygon fill="#63b8ff" stroke="#63b8ff" points="412.77,-37.9 419.96,-30.11 409.49,-31.72 412.77,-37.9"/>
</a>
</g>
</g>
<!-- Node11 -->
<g id="Node000011" class="node">
<title>Node11</title>
<g id="a_Node000011"><a xlink:title=" ">
<polygon fill="#e0e0e0" stroke="#999999" points="656.5,-30 528.5,-30 528.5,0 656.5,0 656.5,-30"/>
<text text-anchor="start" x="536.5" y="-18" font-family="Helvetica,sans-Serif" font-size="10.00">boost/graph/connected</text>
<text text-anchor="middle" x="592.5" y="-7" font-family="Helvetica,sans-Serif" font-size="10.00">_components.hpp</text>
</a>
</g>
</g>
<!-- Node6&#45;&gt;Node11 -->
<g id="edge11_Node000006_Node000011" class="edge">
<title>Node6&#45;&gt;Node11</title>
<g id="a_edge11_Node000006_Node000011"><a xlink:title=" ">
<path fill="none" stroke="#63b8ff" d="M372.1,-66.37C410.53,-57.58 472.75,-43.36 521.3,-32.27"/>
<polygon fill="#63b8ff" stroke="#63b8ff" points="522.16,-35.66 531.13,-30.02 520.6,-28.84 522.16,-35.66"/>
</a>
</g>
</g>
<!-- Node12 -->
<g id="Node000012" class="node">
<title>Node12</title>
<g id="a_Node000012"><a xlink:title=" ">
<polygon fill="#e0e0e0" stroke="#999999" points="786.5,-30 674.5,-30 674.5,0 786.5,0 786.5,-30"/>
<text text-anchor="start" x="682.5" y="-18" font-family="Helvetica,sans-Serif" font-size="10.00">boost/graph/filtered</text>
<text text-anchor="middle" x="730.5" y="-7" font-family="Helvetica,sans-Serif" font-size="10.00">_graph.hpp</text>
</a>
</g>
</g>
<!-- Node6&#45;&gt;Node12 -->
<g id="edge12_Node000006_Node000012" class="edge">
<title>Node6&#45;&gt;Node12</title>
<g id="a_edge12_Node000006_Node000012"><a xlink:title=" ">
<path fill="none" stroke="#63b8ff" d="M372.18,-70.59C430.95,-63.96 551.97,-49.47 664.06,-30.17"/>
<polygon fill="#63b8ff" stroke="#63b8ff" points="664.93,-33.57 674.18,-28.41 663.73,-26.68 664.93,-33.57"/>
</a>
</g>
</g>
</g>
</svg>
